<?xml version="1.0" encoding="UTF-8"?>
<svg id="Layer_1" data-name="Layer 1" xmlns="http://www.w3.org/2000/svg" viewBox="0 0 2177.32 265">
  <defs>
    <style>
      .cls-1 {
        fill: #fff;
      }

      .cls-2 {
        fill: none;
        stroke: #fff;
        stroke-miterlimit: 10;
        stroke-width: 10px;
      }
    </style>
  </defs>
  <circle class="cls-2" cx="1001.39" cy="132.5" r="127.5"/>
  <line class="cls-2" x1="928.89" y1="162.1" x2="1079.89" y2="162.1"/>
  <path class="cls-2" d="m1024.44,158.13v26.32c0,13.96,11.32,25.28,25.28,25.28s25.28-11.32,25.28-25.28v-26.32"/>
  <line class="cls-2" x1="1049.72" y1="164.22" x2="1049.72" y2="188.46"/>
  <line class="cls-2" x1="939.65" y1="76.38" x2="978.96" y2="115.68"/>
  <line class="cls-2" x1="978.96" y1="76.38" x2="939.65" y2="115.68"/>
  <line class="cls-2" x1="1024.44" y1="76.38" x2="1063.75" y2="115.68"/>
  <line class="cls-2" x1="1063.75" y1="76.38" x2="1024.44" y2="115.68"/>
  <g>
    <path class="cls-1" d="m96.97,22.14c14.48,0,27.97,2.31,40.46,6.93,12.49,4.62,23.3,11.55,32.43,20.78,9.13,9.24,16.26,20.78,21.41,34.63,5.14,13.85,7.71,30.12,7.71,48.8,0,16.37-2.1,31.48-6.3,45.34-4.2,13.85-10.55,25.82-19.05,35.89-8.5,10.07-19.1,18-31.8,23.77-12.7,5.78-27.66,8.66-44.86,8.66H0V22.14h96.97Zm-3.46,183.24c7.13,0,14.06-1.15,20.78-3.46,6.71-2.31,12.7-6.14,17.95-11.49,5.24-5.35,9.45-12.33,12.59-20.94,3.15-8.6,4.72-19.1,4.72-31.48,0-11.33-1.1-21.57-3.31-30.7-2.2-9.13-5.82-16.95-10.86-23.46-5.04-6.5-11.7-11.49-19.99-14.96-8.29-3.46-18.53-5.19-30.7-5.19h-35.26v141.68h44.08Z"/>
    <path class="cls-1" d="m401.42,22.14v41.56h-118.7v48.17h108.94v38.41h-108.94v55.1h121.21v41.56h-170.64V22.14h168.13Z"/>
    <path class="cls-1" d="m549.4,22.14l84.06,224.8h-51.32l-17-50.06h-84.06l-17.63,50.06h-49.75L498.71,22.14h50.69Zm2.83,137.9l-28.34-82.49h-.63l-29.28,82.49h58.25Z"/>
    <path class="cls-1" d="m749.95,22.14c14.48,0,27.97,2.31,40.46,6.93,12.49,4.62,23.3,11.55,32.43,20.78,9.13,9.24,16.26,20.78,21.41,34.63,5.14,13.85,7.71,30.12,7.71,48.8,0,16.37-2.1,31.48-6.3,45.34-4.2,13.85-10.55,25.82-19.05,35.89-8.5,10.07-19.1,18-31.8,23.77-12.7,5.78-27.66,8.66-44.86,8.66h-96.97V22.14h96.97Zm-3.46,183.24c7.13,0,14.06-1.15,20.78-3.46,6.71-2.31,12.7-6.14,17.95-11.49,5.24-5.35,9.45-12.33,12.59-20.94,3.15-8.6,4.72-19.1,4.72-31.48,0-11.33-1.1-21.57-3.31-30.7-2.2-9.13-5.82-16.95-10.86-23.46-5.04-6.5-11.7-11.49-19.99-14.96-8.29-3.46-18.53-5.19-30.7-5.19h-35.26v141.68h44.08Z"/>
  </g>
  <g>
    <path class="cls-1" d="m1199.43,22.14v224.8h-49.43V22.14h49.43Z"/>
    <path class="cls-1" d="m1291.99,22.14l93.82,150.81h.63V22.14h46.28v224.8h-49.43l-93.51-150.5h-.63v150.5h-46.28V22.14h49.12Z"/>
    <path class="cls-1" d="m1513.96,191.52c2.73,5.25,6.35,9.5,10.86,12.75,4.51,3.26,9.81,5.67,15.9,7.24,6.08,1.57,12.38,2.36,18.89,2.36,4.41,0,9.13-.36,14.17-1.1,5.04-.73,9.76-2.15,14.17-4.25,4.41-2.1,8.08-4.98,11.02-8.66,2.94-3.67,4.41-8.34,4.41-14.01,0-6.08-1.94-11.02-5.82-14.8-3.89-3.78-8.97-6.93-15.27-9.45-6.3-2.52-13.44-4.72-21.41-6.61-7.98-1.89-16.06-3.98-24.24-6.3-8.4-2.1-16.58-4.67-24.56-7.71-7.98-3.04-15.11-6.98-21.41-11.81-6.3-4.83-11.39-10.86-15.27-18.1-3.89-7.24-5.83-16-5.83-26.29,0-11.54,2.46-21.57,7.4-30.07,4.93-8.5,11.38-15.58,19.36-21.25,7.97-5.67,17-9.86,27.08-12.59,10.08-2.73,20.15-4.09,30.22-4.09,11.75,0,23.03,1.31,33.85,3.94,10.81,2.63,20.41,6.88,28.81,12.75,8.39,5.88,15.06,13.38,19.99,22.51,4.93,9.13,7.4,20.2,7.4,33.22h-47.86c-.42-6.71-1.84-12.28-4.25-16.69-2.42-4.41-5.62-7.87-9.6-10.39-3.99-2.52-8.55-4.3-13.7-5.35-5.14-1.05-10.76-1.57-16.84-1.57-3.99,0-7.98.42-11.96,1.26-3.99.84-7.61,2.31-10.86,4.41-3.26,2.1-5.93,4.72-8.03,7.87-2.1,3.15-3.15,7.14-3.15,11.96,0,4.41.84,7.98,2.52,10.7,1.68,2.73,4.98,5.25,9.92,7.56,4.93,2.31,11.75,4.62,20.46,6.93,8.71,2.31,20.1,5.25,34.16,8.82,4.2.84,10.02,2.36,17.47,4.57,7.45,2.2,14.85,5.72,22.2,10.55,7.35,4.83,13.7,11.29,19.05,19.36,5.35,8.08,8.03,18.42,8.03,31.01,0,10.29-2,19.83-5.98,28.65-3.99,8.82-9.92,16.43-17.79,22.83-7.87,6.4-17.63,11.39-29.28,14.96-11.65,3.57-25.14,5.35-40.46,5.35-12.39,0-24.4-1.52-36.05-4.56-11.65-3.04-21.94-7.82-30.86-14.33-8.92-6.5-16.01-14.8-21.25-24.87-5.25-10.08-7.77-22.04-7.56-35.89h47.86c0,7.56,1.36,13.96,4.09,19.21Z"/>
    <path class="cls-1" d="m1729.93,22.14v224.8h-49.43V22.14h49.43Z"/>
    <path class="cls-1" d="m1870.35,22.14c14.48,0,27.97,2.31,40.46,6.93,12.49,4.62,23.3,11.55,32.43,20.78,9.13,9.24,16.26,20.78,21.41,34.63,5.14,13.85,7.71,30.12,7.71,48.8,0,16.37-2.1,31.48-6.3,45.34-4.2,13.85-10.55,25.82-19.05,35.89-8.5,10.07-19.1,18-31.8,23.77-12.7,5.78-27.66,8.66-44.87,8.66h-96.97V22.14h96.97Zm-3.46,183.24c7.13,0,14.06-1.15,20.78-3.46,6.71-2.31,12.7-6.14,17.95-11.49,5.24-5.35,9.45-12.33,12.59-20.94,3.15-8.6,4.72-19.1,4.72-31.48,0-11.33-1.1-21.57-3.3-30.7-2.21-9.13-5.83-16.95-10.86-23.46-5.04-6.5-11.7-11.49-19.99-14.96-8.29-3.46-18.53-5.19-30.7-5.19h-35.26v141.68h44.08Z"/>
    <path class="cls-1" d="m2174.81,22.14v41.56h-118.7v48.17h108.94v38.41h-108.94v55.1h121.21v41.56h-170.64V22.14h168.12Z"/>
  </g>
</svg>